<?xml version="1.0" encoding="utf-8"?>
<!-- Generator: Adobe Illustrator 25.0.1, SVG Export Plug-In . SVG Version: 6.00 Build 0)  -->
<svg version="1.1" id="Layer_1" xmlns="http://www.w3.org/2000/svg" xmlns:xlink="http://www.w3.org/1999/xlink" x="0px" y="0px"
	 viewBox="0 0 790.2 380.3" style="enable-background:new 0 0 790.2 380.3;" xml:space="preserve">
<style type="text/css">
	.st0{fill:#C21E5C;}
	.st1{fill:#D81B61;}
	.st2{fill:#EC417A;}
	.st3{fill:url(#SVGID_1_);}
	.st4{fill:url(#SVGID_2_);}
	.st5{opacity:0.5;fill:url(#SVGID_3_);enable-background:new    ;}
	.st6{fill:#010101;}
</style>
<path class="st0" d="M266.6,350.9c0-1.1-0.2-2.2-0.4-3.3c-0.3-1.5-0.9-3-1.7-4.4L159.3,223.9c-9.6,3.5-19.9,5.8-30.6,6.8
	c-1.8,0.3-3.7,0.4-5.7,0.4c-55.7,2.9-111,50.2-111,111v9.4c0,3.6,1.1,7,3,9.7c1.3,1.9,2.8,3.4,4.7,4.7c2.8,1.9,6.1,3,9.7,3h220.9
	c1.6-0.1,3.1-0.4,4.6-0.9c0.4-0.1,0.7-0.3,1.1-0.4c5.9-2.5,9.9-8.1,10.5-14.3c0-0.4,0.1-0.7,0.1-1.1V350.9
	C266.6,351,266.6,350.9,266.6,350.9L266.6,350.9z"/>
<path class="st1" d="M53.9,368.9h195.3c13.2,0,21.6-14.1,15.3-25.7l-68.2-77.4c-3-0.2-6-0.3-9-0.3
	C115.9,265.5,57.7,311.3,53.9,368.9z"/>
<path class="st2" d="M234.4,309c-54.3,0.3-100.9,24.8-121.4,59.8h136.2c13.2,0,21.6-14.1,15.3-25.7L234.4,309z"/>
<path class="st1" d="M12.1,342.2v-1.5V342.2z"/>
<linearGradient id="SVGID_1_" gradientUnits="userSpaceOnUse" x1="184.8737" y1="152.7622" x2="-7.2071" y2="41.8647" gradientTransform="matrix(1 0 0 1 0 82)">
	<stop  offset="0" style="stop-color:#EC417A"/>
	<stop  offset="0.278" style="stop-color:#EC437A"/>
	<stop  offset="0.456" style="stop-color:#ED4C78"/>
	<stop  offset="0.607" style="stop-color:#EF5B75"/>
	<stop  offset="0.742" style="stop-color:#F27071"/>
	<stop  offset="0.866" style="stop-color:#F58B6C"/>
	<stop  offset="0.981" style="stop-color:#F9AC66"/>
	<stop  offset="0.998" style="stop-color:#FAB165"/>
</linearGradient>
<path class="st3" d="M123.1,9.2c-61.3,0-111,49.7-111,111v221.9c0-60.8,55.2-108,111-111c62.2-3.3,111-49.7,111-111
	S184.3,9.2,123.1,9.2z"/>
<linearGradient id="SVGID_2_" gradientUnits="userSpaceOnUse" x1="12.4551" y1="261.0549" x2="11.7861" y2="260.6689" gradientTransform="matrix(1 0 0 1 0 82)">
	<stop  offset="0" style="stop-color:#009898"/>
	<stop  offset="0.28" style="stop-color:#039998"/>
	<stop  offset="0.459" style="stop-color:#0B9D9A"/>
	<stop  offset="0.611" style="stop-color:#1AA39C"/>
	<stop  offset="0.747" style="stop-color:#2FAB9F"/>
	<stop  offset="0.872" style="stop-color:#4AB6A3"/>
	<stop  offset="0.988" style="stop-color:#6BC4A9"/>
	<stop  offset="0.998" style="stop-color:#6EC5A9"/>
</linearGradient>
<path class="st4" d="M12.1,343.6v-1.5V343.6z"/>
<path class="st2" d="M12.1,120.2L12.1,120.2z"/>
<radialGradient id="SVGID_3_" cx="260.225" cy="314.2172" r="247.813" gradientTransform="matrix(1 0 0 0.5718 0 173.8692)" gradientUnits="userSpaceOnUse">
	<stop  offset="0" style="stop-color:#000000;stop-opacity:0"/>
	<stop  offset="0.859" style="stop-color:#000000;stop-opacity:0.773"/>
	<stop  offset="1" style="stop-color:#000000;stop-opacity:0.9"/>
</radialGradient>
<path class="st5" d="M264.5,343.2L159.3,223.9c-9.6,3.5-19.9,5.8-30.6,6.8c-1.8,0.3-3.7,0.4-5.7,0.4c-55.7,2.9-111,50.2-111,111v1.5
	v-1.5v9.4c0,9.6,7.8,17.4,17.4,17.4h219.7C262.4,368.9,270.8,354.8,264.5,343.2L264.5,343.2z"/>
<g>
	<path d="M313.4,209.6h-12.2V243c0,2-1.6,3.6-3.6,3.6H279c-2,0-3.6-1.6-3.6-3.6V138c0-2.1,1.7-3.9,3.9-3.9h41.1
		c21.4,0,38.5,17.2,38.5,38.5c0,13.8-8.4,26.3-20.7,32.6l20,34.4c1.8,3-0.4,6.8-3.9,6.8H340c-3.4,0-6.5-1.8-8.2-4.7L313.4,209.6z
		 M301.2,187.1h19.3c7.1,0,12.8-6.3,12.8-14.5s-5.8-14.5-12.8-14.5h-19.3V187.1z M410.2,227.3c5.3,0,9.9-1.6,13.2-4.1
		c1.6-1.2,3.7-1.2,5.4-0.2l10.9,6.2c2.9,1.7,3.4,5.6,1.1,8c-7.7,7.7-18.1,11.6-30.8,11.6c-27.5,0-44.5-18.5-44.5-42.4
		s17.3-42.4,42.7-42.4c23.4,0,40.8,18.1,40.8,42.4c0,1.3,0,2.6-0.1,3.9c-0.3,3.2-3,5.7-6.2,5.7h-51.6
		C394,224.4,401.4,227.3,410.2,227.3L410.2,227.3z M425,198.1c-2.6-9.3-9.8-12.7-17-12.7c-9.2,0-15.3,4.5-17.5,12.7H425z
		 M535.4,171.3L509,242.6c-0.9,2.4-3.1,3.9-5.6,3.9h-18.9c-2.5,0-4.8-1.6-5.6-3.9l-26.3-71c-1-2.6,1-5.4,3.8-5.4h18
		c1.7,0,3.3,1.1,3.8,2.8l15.8,48.1l15.9-48.4c0.5-1.5,1.9-2.6,3.5-2.6H532C534.5,166.3,536.3,168.8,535.4,171.3z M583.6,227.3
		c5.3,0,10-1.7,13.3-4.2c1.4-1,3.2-1.3,4.7-0.4l12.4,7.1c2.4,1.4,2.8,4.5,0.9,6.5c-7.7,8.2-18.4,12.5-31.6,12.5
		c-27.5,0-44.5-18.5-44.5-42.4s17.3-42.4,42.7-42.4c23.4,0,40.8,18.1,40.8,42.4c0,1.2,0,2.3-0.1,3.5c-0.2,3.5-3.2,6.1-6.6,6.1h-51.2
		C567.4,224.4,574.8,227.3,583.6,227.3L583.6,227.3z M598.4,198.1c-2.6-9.3-9.8-12.7-17-12.7c-9.2,0-15.3,4.5-17.5,12.7H598.4z
		 M717.5,170.1v72.5c0,2.1-1.7,3.9-3.9,3.9h-16.3c-2.1,0-3.9-1.7-3.9-3.9V239c-5.3,6.1-13.2,9.8-23.9,9.8c-21,0-38.4-18.5-38.4-42.4
		s17.3-42.4,38.4-42.4c10.8,0,18.6,3.7,23.9,9.8v-3.7c0-2.1,1.7-3.9,3.9-3.9h16.3C715.8,166.3,717.5,168,717.5,170.1z M693.4,206.4
		c0-12-8-19.6-19.1-19.6s-19.1,7.5-19.1,19.6c0,12,8,19.6,19.1,19.6S693.4,218.4,693.4,206.4z M739.4,129.3h15.7
		c2.3,0,4.2,1.9,4.2,4.2v108.9c0,2.3-1.9,4.2-4.2,4.2h-15.7c-2.3,0-4.2-1.9-4.2-4.2V133.5C735.2,131.2,737.1,129.3,739.4,129.3z"/>
</g>
<g>
	<g>
		<path class="st6" d="M771.5,138.3c0-1.6,0.4-3.1,1.1-4.5c0.8-1.4,1.8-2.5,3.1-3.3c1.3-0.8,2.8-1.2,4.3-1.2c1.5,0,3,0.4,4.3,1.2
			c1.3,0.8,2.4,1.9,3.1,3.3c0.7,1.4,1.1,2.9,1.1,4.5c0,1.6-0.4,3.1-1.1,4.4c-0.7,1.4-1.7,2.5-3.1,3.3c-1.3,0.8-2.8,1.3-4.4,1.3
			c-1.6,0-3-0.4-4.4-1.2c-1.3-0.8-2.4-1.9-3.1-3.3C771.8,141.4,771.5,139.9,771.5,138.3z M772.8,138.3c0,1.4,0.3,2.7,1,3.8
			c0.6,1.2,1.5,2.1,2.6,2.8c1.1,0.7,2.3,1,3.6,1c1.3,0,2.5-0.3,3.6-1c1.1-0.7,2-1.6,2.6-2.8c0.6-1.2,0.9-2.4,0.9-3.8
			c0-1.4-0.3-2.6-0.9-3.8c-0.6-1.2-1.5-2.1-2.6-2.7c-1.1-0.7-2.3-1-3.6-1c-1.3,0-2.5,0.3-3.6,1c-1.1,0.7-2,1.6-2.6,2.7
			C773.2,135.7,772.8,136.9,772.8,138.3z M778.2,139.2v4.1h-1.7V133h3.3c1.2,0,2.2,0.3,2.9,0.8c0.7,0.5,1,1.3,1,2.3
			c0,1-0.5,1.7-1.5,2.3c1,0.4,1.5,1.2,1.5,2.5v0.7c0,0.7,0.1,1.2,0.2,1.5v0.2h-1.7c-0.1-0.3-0.2-0.8-0.2-1.5s0-1.2,0-1.3
			c-0.1-0.8-0.7-1.2-1.6-1.2H778.2z M778.2,137.6h1.9c0.6,0,1-0.2,1.4-0.4c0.4-0.3,0.5-0.6,0.5-1c0-0.6-0.2-1-0.5-1.2
			c-0.3-0.2-0.9-0.4-1.7-0.4h-1.7V137.6z"/>
	</g>
</g>
</svg>
